<?xml version="1.0" encoding="UTF-8" standalone="no"?>
<!DOCTYPE svg PUBLIC "-//W3C//DTD SVG 1.1//EN"
 "http://www.w3.org/Graphics/SVG/1.1/DTD/svg11.dtd">
<!-- Generated by graphviz version 2.38.0 (20140413.2041)
 -->
<!-- Title: G Pages: 1 -->
<svg width="717pt" height="330pt"
 viewBox="0.00 0.00 717.36 330.00" xmlns="http://www.w3.org/2000/svg" xmlns:xlink="http://www.w3.org/1999/xlink">
<g id="graph0" class="graph" transform="scale(1 1) rotate(0) translate(4 326)">
<title>G</title>
<polygon fill="white" stroke="none" points="-4,4 -4,-326 713.361,-326 713.361,4 -4,4"/>
<g id="clust1" class="cluster"><title>cluster_Global</title>
<path fill="none" stroke="gray" d="M491.361,-8C491.361,-8 689.361,-8 689.361,-8 695.361,-8 701.361,-14 701.361,-20 701.361,-20 701.361,-302 701.361,-302 701.361,-308 695.361,-314 689.361,-314 689.361,-314 491.361,-314 491.361,-314 485.361,-314 479.361,-308 479.361,-302 479.361,-302 479.361,-20 479.361,-20 479.361,-14 485.361,-8 491.361,-8"/>
<text text-anchor="middle" x="590.361" y="-301.2" font-family="Times,serif" font-size="11.00" fill="gray">Global</text>
</g>
<g id="clust2" class="cluster"><title>cluster_\AppBundle</title>
<path fill="none" stroke="gray" d="M499.361,-16C499.361,-16 681.361,-16 681.361,-16 687.361,-16 693.361,-22 693.361,-28 693.361,-28 693.361,-274 693.361,-274 693.361,-280 687.361,-286 681.361,-286 681.361,-286 499.361,-286 499.361,-286 493.361,-286 487.361,-280 487.361,-274 487.361,-274 487.361,-28 487.361,-28 487.361,-22 493.361,-16 499.361,-16"/>
<text text-anchor="middle" x="590.361" y="-273.2" font-family="Times,serif" font-size="11.00" fill="gray">AppBundle</text>
</g>
<g id="clust3" class="cluster"><title>cluster_\AppBundle\Tests</title>
<path fill="none" stroke="gray" d="M507.361,-150C507.361,-150 673.361,-150 673.361,-150 679.361,-150 685.361,-156 685.361,-162 685.361,-162 685.361,-246 685.361,-246 685.361,-252 679.361,-258 673.361,-258 673.361,-258 507.361,-258 507.361,-258 501.361,-258 495.361,-252 495.361,-246 495.361,-246 495.361,-162 495.361,-162 495.361,-156 501.361,-150 507.361,-150"/>
<text text-anchor="middle" x="590.361" y="-245.2" font-family="Times,serif" font-size="11.00" fill="gray">Tests</text>
</g>
<g id="clust4" class="cluster"><title>cluster_\AppBundle\Tests\Controller</title>
<path fill="none" stroke="gray" d="M515.361,-158C515.361,-158 665.361,-158 665.361,-158 671.361,-158 677.361,-164 677.361,-170 677.361,-170 677.361,-218 677.361,-218 677.361,-224 671.361,-230 665.361,-230 665.361,-230 515.361,-230 515.361,-230 509.361,-230 503.361,-224 503.361,-218 503.361,-218 503.361,-170 503.361,-170 503.361,-164 509.361,-158 515.361,-158"/>
<text text-anchor="middle" x="590.361" y="-217.2" font-family="Times,serif" font-size="11.00" fill="gray">Controller</text>
</g>
<g id="clust5" class="cluster"><title>cluster_\AppBundle\Controller</title>
<path fill="none" stroke="gray" d="M528.861,-70C528.861,-70 651.861,-70 651.861,-70 657.861,-70 663.861,-76 663.861,-82 663.861,-82 663.861,-130 663.861,-130 663.861,-136 657.861,-142 651.861,-142 651.861,-142 528.861,-142 528.861,-142 522.861,-142 516.861,-136 516.861,-130 516.861,-130 516.861,-82 516.861,-82 516.861,-76 522.861,-70 528.861,-70"/>
<text text-anchor="middle" x="590.361" y="-129.2" font-family="Times,serif" font-size="11.00" fill="gray">Controller</text>
</g>
<!-- \\AppBundle\\Tests\\Controller\\DefaultControllerTest -->
<g id="node1" class="node"><title>\\AppBundle\\Tests\\Controller\\DefaultControllerTest</title>
<polygon fill="none" stroke="black" points="669.361,-202 511.361,-202 511.361,-166 669.361,-166 669.361,-202"/>
<text text-anchor="middle" x="590.361" y="-181.2" font-family="Courier,monospace" font-size="11.00">DefaultControllerTest</text>
</g>
<!-- \\Symfony\\Bundle\\FrameworkBundle\\Test\\WebTestCase -->
<g id="node4" class="node"><title>\\Symfony\\Bundle\\FrameworkBundle\\Test\\WebTestCase</title>
<ellipse fill="none" stroke="black" cx="219.681" cy="-184" rx="211.762" ry="18"/>
<text text-anchor="middle" x="219.681" y="-180.3" font-family="Times,serif" font-size="14.00" fill="gray">\Symfony\Bundle\FrameworkBundle\Test\WebTestCase</text>
</g>
<!-- \\AppBundle\\Tests\\Controller\\DefaultControllerTest&#45;&gt;\\Symfony\\Bundle\\FrameworkBundle\\Test\\WebTestCase -->
<g id="edge1" class="edge"><title>\\AppBundle\\Tests\\Controller\\DefaultControllerTest&#45;&gt;\\Symfony\\Bundle\\FrameworkBundle\\Test\\WebTestCase</title>
<path fill="none" stroke="black" d="M511.173,-184C490.273,-184 466.612,-184 442.035,-184"/>
<polygon fill="none" stroke="black" points="441.829,-180.5 431.829,-184 441.829,-187.5 441.829,-180.5"/>
</g>
<!-- \\AppBundle\\Controller\\DefaultController -->
<g id="node2" class="node"><title>\\AppBundle\\Controller\\DefaultController</title>
<polygon fill="none" stroke="black" points="655.861,-114 524.861,-114 524.861,-78 655.861,-78 655.861,-114"/>
<text text-anchor="middle" x="590.361" y="-93.2" font-family="Courier,monospace" font-size="11.00">DefaultController</text>
</g>
<!-- \\Symfony\\Bundle\\FrameworkBundle\\Controller\\Controller -->
<g id="node5" class="node"><title>\\Symfony\\Bundle\\FrameworkBundle\\Controller\\Controller</title>
<ellipse fill="none" stroke="black" cx="219.681" cy="-96" rx="219.861" ry="18"/>
<text text-anchor="middle" x="219.681" y="-92.3" font-family="Times,serif" font-size="14.00" fill="gray">\Symfony\Bundle\FrameworkBundle\Controller\Controller</text>
</g>
<!-- \\AppBundle\\Controller\\DefaultController&#45;&gt;\\Symfony\\Bundle\\FrameworkBundle\\Controller\\Controller -->
<g id="edge2" class="edge"><title>\\AppBundle\\Controller\\DefaultController&#45;&gt;\\Symfony\\Bundle\\FrameworkBundle\\Controller\\Controller</title>
<path fill="none" stroke="black" d="M524.72,-96C502.832,-96 476.979,-96 449.738,-96"/>
<polygon fill="none" stroke="black" points="449.644,-92.5001 439.644,-96 449.644,-99.5001 449.644,-92.5001"/>
</g>
<!-- \\AppBundle\\AppBundle -->
<g id="node3" class="node"><title>\\AppBundle\\AppBundle</title>
<polygon fill="none" stroke="black" points="628.861,-60 551.861,-60 551.861,-24 628.861,-24 628.861,-60"/>
<text text-anchor="middle" x="590.361" y="-39.2" font-family="Courier,monospace" font-size="11.00">AppBundle</text>
</g>
<!-- \\Symfony\\Component\\HttpKernel\\Bundle\\Bundle -->
<g id="node6" class="node"><title>\\Symfony\\Component\\HttpKernel\\Bundle\\Bundle</title>
<ellipse fill="none" stroke="black" cx="219.681" cy="-42" rx="187.367" ry="18"/>
<text text-anchor="middle" x="219.681" y="-38.3" font-family="Times,serif" font-size="14.00" fill="gray">\Symfony\Component\HttpKernel\Bundle\Bundle</text>
</g>
<!-- \\AppBundle\\AppBundle&#45;&gt;\\Symfony\\Component\\HttpKernel\\Bundle\\Bundle -->
<g id="edge3" class="edge"><title>\\AppBundle\\AppBundle&#45;&gt;\\Symfony\\Component\\HttpKernel\\Bundle\\Bundle</title>
<path fill="none" stroke="black" d="M551.638,-42C518.862,-42 468.683,-42 417.23,-42"/>
<polygon fill="none" stroke="black" points="416.927,-38.5001 406.927,-42 416.927,-45.5001 416.927,-38.5001"/>
</g>
</g>
</svg>
